<!--?xml version="1.0" standalone="no"?-->
              <svg id="sw-js-blob-svg" viewBox="0 0 100 100" xmlns="http://www.w3.org/2000/svg" version="1.1">
                    <defs> 
                        <linearGradient id="sw-gradient" x1="0" x2="1" y1="1" y2="0">
                            <stop id="stop1" stop-color="rgba(194.736, 36.35, 143.99, 1)" offset="0%"></stop>
                            <stop id="stop2" stop-color="rgba(194.797, 31, 251, 1)" offset="100%"></stop>
                        </linearGradient>
                    </defs>
                <path fill="url(#sw-gradient)" d="M17.4,-30C21.8,-27.6,24.1,-21.4,28.7,-15.8C33.4,-10.2,40.4,-5.1,39.3,-0.6C38.3,3.8,29.1,7.7,23.7,12.1C18.4,16.5,16.9,21.6,13.6,24.6C10.2,27.7,5.1,28.8,0.7,27.5C-3.6,26.2,-7.3,22.6,-12.7,20.7C-18.2,18.9,-25.5,18.9,-27.7,15.8C-29.9,12.6,-27.1,6.3,-27.2,-0.1C-27.3,-6.4,-30.4,-12.9,-29.2,-17.9C-28.1,-23,-22.8,-26.7,-17.3,-28.5C-11.7,-30.2,-5.8,-30.1,0.3,-30.7C6.5,-31.3,13,-32.5,17.4,-30Z" width="100%" height="100%" transform="translate(50 50)" stroke-width="0" style="transition: all 0.3s ease 0s;" stroke="url(#sw-gradient)"></path>
              </svg>