<svg id="visual" viewBox="0 0 960 540" width="960" height="540" xmlns="http://www.w3.org/2000/svg" xmlns:xlink="http://www.w3.org/1999/xlink" version="1.1"><rect x="0" y="0" width="960" height="540" fill="#ffffff"></rect><defs><linearGradient id="grad1_0" x1="43.8%" y1="100%" x2="100%" y2="0%"><stop offset="14.444444444444446%" stop-color="#ffffff" stop-opacity="1"></stop><stop offset="85.55555555555554%" stop-color="#ffffff" stop-opacity="1"></stop></linearGradient></defs><defs><linearGradient id="grad2_0" x1="0%" y1="100%" x2="56.3%" y2="0%"><stop offset="14.444444444444446%" stop-color="#ffffff" stop-opacity="1"></stop><stop offset="85.55555555555554%" stop-color="#ffffff" stop-opacity="1"></stop></linearGradient></defs><g transform="translate(960, 540)"><path d="M-243 0C-226.9 -21.6 -210.7 -43.2 -201.6 -65.5C-192.5 -87.8 -190.5 -110.9 -181.2 -131.7C-171.9 -152.5 -155.4 -171.1 -137 -188.5C-118.5 -205.9 -98.2 -222.2 -75.1 -231.1C-52 -240 -26 -241.5 0 -243L0 0Z" fill="#923cfa"></path></g><g transform="translate(0, 0)"><path d="M243 0C226.2 22.7 209.4 45.4 195.9 63.7C182.4 81.9 172.2 95.6 166.7 121.1C161.1 146.6 160.2 184 142.8 196.6C125.5 209.2 91.7 197.1 65.2 200.7C38.7 204.3 19.3 223.6 0 243L0 0Z" fill="#923cfa"></path></g></svg>